<svg width="1920" height="845" version="1.1" xmlns="http://www.w3.org/2000/svg" desc="Created with imagetracer.js version 1.2.6" ><path fill="rgb(255,255,255)" stroke="rgb(255,255,255)" stroke-width="1" opacity="0.8862745098039215" d="M 780.5 39 L 790.5 39 L 791.5 40 L 802.5 41 L 813.5 45 L 817.5 45 L 828.5 51 L 831.5 51 L 850.5 63 L 852.5 63 L 875 83.5 L 890 104.5 L 890 107.5 L 895 117.5 L 896 130.5 L 897 131.5 L 897 146.5 L 896 147.5 L 896 155.5 L 890 169.5 L 880.5 181 L 878 182.5 L 875.5 186 L 872 187 Q 873.1 189.7 870.5 189 L 864.5 193 L 860.5 193 L 851.5 197 L 848 197 Q 847 189.7 851.5 187 L 860 181 L 862.5 177 Q 870 174 874 167.5 L 881 156.5 L 884 146.5 L 884 125.5 L 877 105.5 L 862.5 86 Q 860.3 86.8 861 84.5 L 860 82 L 855 80 L 851.5 75 L 849 75 Q 850.1 72.3 847.5 73 L 836.5 65 L 822.5 58 Q 815 57.5 810.5 54 L 798.5 51 L 777.5 51 L 755.5 59 L 745.5 65 L 736 73.5 Q 736.8 75.8 734.5 75 L 725 86.5 L 719 98.5 L 719 102.5 L 716 110.5 L 716 128.5 L 714.5 130 L 709 128 L 706 116.5 L 706 104.5 Q 708.5 103 707 97.5 L 713 85.5 L 713 82.5 L 722.5 69 L 725 67.5 L 728.5 63 L 731 61.5 L 733.5 58 L 755.5 45 L 759.5 45 L 768.5 41 L 779.5 40 L 780.5 39 Z " /><path fill="rgb(255,255,255)" stroke="rgb(255,255,255)" stroke-width="1" opacity="0.8862745098039215" d="M 284.5 101 L 293.5 101 L 307.5 104 L 324 113 L 325.5 116 L 335 123.5 L 338.5 128 L 341 129.5 L 343.5 133 L 347 134 L 349.5 138 L 367.5 151 L 378.5 157 L 381.5 157 L 392.5 163 L 396.5 163 L 408.5 168 L 444.5 175 L 498.5 176 L 499.5 175 L 517.5 175 L 518.5 174 L 529.5 173 L 543.5 169 L 553.5 168 L 566.5 163 L 575.5 162 L 584.5 158 L 593.5 157 L 601.5 153 Q 606.1 153.6 607.5 151 L 612.5 151 L 620.5 147 L 646.5 139 L 654.5 134 L 659.5 133 L 666.5 128 L 671.5 127 L 678.5 122 L 681.5 122 L 689.5 117 L 695 117 Q 696.8 125.9 690.5 128 L 664.5 145 L 652.5 151 L 649.5 151 L 641.5 156 L 635.5 157 L 623.5 163 L 619.5 163 L 605.5 169 L 600.5 169 L 588.5 174 L 579.5 175 L 562.5 181 L 555.5 181 L 551.5 183 L 532.5 187 L 520.5 187 L 519.5 188 L 497.5 189 L 496.5 190 L 463.5 190 L 462.5 189 L 448.5 189 L 439.5 187 L 427.5 187 L 405.5 181 L 400.5 181 L 388.5 176 L 379.5 174 L 353 161 Q 354.1 158.3 351.5 159 L 335 148 L 333.5 145 L 330 143.5 L 326.5 139 L 324 137.5 L 321.5 134 L 318 131.5 L 316.5 129 L 312 126.5 L 308.5 122 L 297.5 116 L 278.5 116 L 263.5 122 L 259.5 122 L 240.5 133 L 236.5 134 L 232.5 138 L 219.5 145 L 194 166.5 L 192.5 169 Q 190.3 168.3 191 170.5 Q 186.7 172.7 187 179.5 L 191.5 187 L 194 188.5 L 196.5 192 L 218.5 204 L 222.5 204 L 239.5 212 L 265 229.5 Q 264.3 231.8 266.5 231 L 282 244 Q 280.9 246.7 283.5 246 L 316.5 275 L 331.5 287 L 335 288 L 336.5 291 L 353 302.5 Q 352.3 304.8 354.5 304 L 359 306 Q 357.9 308.7 360.5 308 L 394.5 331 L 412.5 340 L 415.5 340 L 424.5 344 L 432.5 346 L 445.5 346 L 446.5 347 L 482.5 347 L 483.5 346 L 502.5 346 L 535.5 340 L 543.5 340 L 567.5 334 L 577.5 334 Q 580 335 579 339.5 L 574.5 346 L 571.5 346 L 564.5 350 Q 558.4 349.4 555.5 352 L 547.5 352 L 513.5 358 L 453.5 359 L 452.5 358 L 436.5 358 L 417.5 352 L 413.5 352 L 402.5 346 L 395.5 344 L 379.5 334 L 377 334 Q 378.1 331.3 375.5 332 L 363.5 323 L 359 322 Q 360.1 319.3 357.5 320 L 330 300.5 Q 330.8 297.9 327.5 299 L 324 297 L 322.5 294 L 300 277.5 L 298.5 275 Q 294.5 275.5 294 272.5 L 292.5 270 L 289.5 269 L 256.5 240 L 253 239 L 251.5 236 L 241 230 Q 242.3 227 238.5 228 L 221.5 218 L 213.5 216 L 202.5 210 L 197.5 209 L 190.5 204 L 188 204 Q 189.1 201.3 186.5 202 L 178 194.5 L 173 186.5 L 171 175.5 L 172 170.5 L 176 163 Q 178.7 164.1 178 161.5 L 194 146.5 Q 193.2 143.9 196.5 145 L 208.5 135 L 239.5 116 L 265.5 105 L 284.5 101 Z " /><path fill="rgb(255,255,255)" stroke="rgb(255,255,255)" stroke-width="1" opacity="0.8862745098039215" d="M 810.5 110 Q 815.8 108.8 817 111.5 L 813.5 116 L 807 120.5 L 807.5 122 L 814.5 122 L 819.5 118 L 820 119.5 L 819 122.5 L 820 125.5 L 812.5 134 L 811 131.5 Q 813.3 130.3 810.5 129 Q 803.2 129.8 800 126.5 L 799 122.5 Q 800.5 116 805.5 113 L 810.5 110 Z " /><path fill="rgb(255,255,255)" stroke="rgb(255,255,255)" stroke-width="1" opacity="0.8862745098039215" d="M 839.5 134 L 849 134 L 849 138 Q 844 137.2 842 140.5 Q 842.8 143.8 847.5 143 Q 848.9 139 854 140 L 852 145.5 Q 855 146.8 854 151 L 846.5 151 Q 845.2 154.7 841 154 L 842 149.5 L 837 148 L 835 144.5 L 835 139.5 L 837 135 L 839.5 134 Z " /><path fill="rgb(255,255,255)" stroke="rgb(255,255,255)" stroke-width="1" opacity="0.8862745098039215" d="M 817.5 145 Q 826.5 143.5 828 149.5 L 828 156.5 L 825 160.5 L 825 163 L 818.5 167 L 811.5 167 L 806 162.5 Q 804.4 151.4 810.5 148 L 817.5 145 Z M 814 151 L 813 159 L 816 160 L 821 158 L 823 155 L 822 153 L 822 151 L 814 151 Z " /><path fill="rgb(255,255,255)" stroke="rgb(255,255,255)" stroke-width="1" opacity="0.8862745098039215" d="M 857 204 L 860 205.5 L 863.5 210 L 866 211.5 L 869.5 216 L 872 217.5 L 875.5 222 L 898.5 240 L 900.5 240 L 916.5 252 L 918.5 252 L 932.5 261 L 958.5 274 L 963.5 275 L 973.5 281 L 976.5 281 L 984.5 286 L 994.5 289 L 1014.5 299 L 1017.5 299 L 1027.5 305 L 1030.5 305 L 1040.5 310 L 1046.5 311 L 1059 318.5 Q 1064 322.5 1063 332.5 L 1060 340 L 1048 346.5 L 1061 356.5 Q 1060.3 359.1 1063 358 L 1063 360.5 Q 1065.8 362.3 1064 368.5 L 1059.5 375 L 1055.5 376 L 1049 380.5 L 1052 382.5 L 1061 395.5 L 1061 405.5 L 1057.5 411 L 1049 415 L 1047 425.5 L 1043.5 429 L 1024.5 430 L 1009.5 426 Q 1007.7 422.8 1002.5 423 L 997 418.5 L 995 411.5 L 996 409 L 1005.5 409 L 1012.5 411 L 1022.5 417 L 1037 419 L 1037 411.5 L 1043.5 405 L 1049 402.5 L 1049 398.5 L 1045 393 Q 1042.3 394.1 1043 391.5 Q 1035.4 388.6 1036 377.5 L 1040.5 372 L 1054 366 Q 1055.1 363.3 1052.5 364 L 1049 362 Q 1050.1 359.3 1047.5 360 L 1034 352 L 1033 346.5 L 1037.5 340 L 1047.5 334 L 1053 333 L 1055 328.5 L 1048.5 322 L 1041.5 319 L 1032.5 316 L 1028.5 316 L 1018.5 311 L 1014.5 311 L 1004.5 306 L 998.5 305 L 989.5 300 L 983.5 299 L 976.5 295 Q 964.6 292.9 956.5 287 L 953.5 287 L 942.5 281 L 939.5 281 L 929.5 275 L 926.5 275 L 919 271 Q 920.3 267.7 915.5 269 L 900.5 258 L 896 257 L 894.5 254 L 878 241.5 Q 878.8 239.3 876.5 240 L 872 234 L 867 230.5 L 856 212.5 L 856 207.5 L 857 204 Z " /><path fill="rgb(255,255,255)" stroke="rgb(255,255,255)" stroke-width="1" opacity="0.8862745098039215" d="M 830.5 212 L 831 213.5 Q 829.6 216.6 824.5 216 L 823.5 214 L 830.5 212 Z " /><path fill="rgb(255,255,255)" stroke="rgb(255,255,255)" stroke-width="1" opacity="0.8862745098039215" d="M 763.5 217 Q 767.5 216.5 768 219.5 L 775 235.5 L 775 238.5 L 778 244.5 L 778 248.5 L 784 259.5 L 784 262.5 L 796 286.5 L 806 300.5 L 807 305 L 810 306.5 L 814 313.5 L 831 334 L 837 338.5 Q 836.3 340.8 838.5 340 L 851.5 352 L 854 352 Q 852.9 354.7 855.5 354 L 864 360 L 868 367.5 L 868 373.5 L 864.5 381 L 854 387.5 L 854 392.5 L 851 399 L 843.5 402 L 837.5 402 L 831 401 L 828 417 Q 825.3 415.9 826 418.5 Q 824.6 421.6 819.5 421 L 807 413.5 L 805.5 411 Q 802.5 410.1 804 414.5 L 801 422.5 L 797.5 426 L 790.5 427 L 783.5 423 L 780.5 423 Q 777.8 417.8 772 417 Q 773.1 414.3 770.5 415 L 762 406.5 L 762 405 Q 759.3 406.1 760 403.5 L 757 399 L 754 397.5 L 754 395.5 L 749 390.5 L 742 380.5 L 741 376.5 L 737 372.5 L 737 370.5 L 721 344.5 L 718 336.5 L 715 333.5 L 707 317.5 L 707 314.5 L 701 304.5 L 700 299.5 L 695 291.5 L 695 288.5 L 689 278.5 L 689 275.5 L 684 267.5 Q 683.3 258.7 679 253.5 L 679 248 Q 682.8 247 684 249.5 L 712 299.5 L 713 304.5 L 719 312.5 L 719 315.5 L 725 323.5 L 725 326.5 Q 729.9 330.1 731 337.5 L 742 353.5 L 742 356.5 L 761 384.5 L 773.5 399 L 776.5 401 L 779.5 405 Q 784.2 411.6 793 413 L 796 403.5 L 796 399 L 801.5 397 L 805.5 397 L 813 402.5 L 814.5 405 L 818.5 407 Q 821.3 404.3 820 397.5 L 822.5 393 L 827.5 390 L 843 390 L 845 381.5 L 850.5 375 L 853.5 375 L 858 370.5 L 838.5 358 L 817 338.5 L 808.5 328 Q 805.9 328.8 807 325.5 L 799.5 316 Q 797.3 316.8 798 314.5 L 779 285.5 L 767 259.5 L 760 237.5 L 760 220.5 L 763.5 217 Z " /><path fill="rgb(255,255,255)" stroke="rgb(255,255,255)" stroke-width="1" opacity="0.8862745098039215" d="M 855.5 313 L 866 317 Q 864.9 319.7 867.5 319 L 890 338.5 L 902.5 352 L 908 356.5 Q 907.3 358.8 909.5 358 L 913 360 L 915.5 364 L 919 365.5 Q 918.3 367.8 920.5 367 L 938.5 381 L 943 382 Q 941.9 384.7 944.5 384 L 975.5 402 L 979 405.5 L 977.5 408 L 962.5 405 L 953.5 400 L 945.5 398 L 926.5 387 L 922.5 386 L 896 367.5 L 893.5 364 L 890 362.5 L 886.5 358 L 878 352 L 873.5 346 Q 871.3 346.8 872 344.5 L 861 332.5 L 860 328 Q 857.3 329.1 858 326.5 L 854 320.5 L 854 314.5 L 855.5 313 Z " /><path fill="rgb(255,255,255)" stroke="rgb(255,255,255)" stroke-width="1" opacity="0.8862745098039215" d="M 1757.5 367 L 1772.5 367 L 1782 371.5 Q 1781.3 373.8 1783.5 373 L 1785 376 L 1788 377.5 L 1797 391.5 Q 1794.5 393 1798 394.5 L 1801 406.5 L 1800 412 L 1798 412 L 1798 416.5 L 1796 417 L 1796 419.5 L 1791 427 L 1776.5 438 L 1770.5 440 L 1758.5 448 L 1755.5 448 L 1752.5 451 Q 1751 448.5 1749.5 452 L 1742.5 456 Q 1741 453.5 1739.5 457 L 1734.5 460 L 1731 460 Q 1732.3 463 1728.5 462 L 1720 467 L 1723 473 L 1727 474 Q 1725.8 477 1729.5 476 L 1734 479 L 1736.5 483 L 1739.5 485 L 1741.5 486 L 1745 483.5 Q 1749.6 470.1 1759.5 462 L 1762.5 462 L 1769.5 457 L 1771.5 458 L 1776.5 457 L 1779.5 458 L 1782.5 457 L 1792.5 459 L 1794.5 461 L 1802 463 Q 1800.9 465.7 1803.5 465 L 1805 468 L 1813 473.5 L 1816 479 Q 1818.7 477.9 1818 480.5 L 1820 484.5 L 1822 490.5 L 1820 500.5 L 1817 506.5 L 1817 510.5 L 1807 534 Q 1803.7 532.7 1805 537.5 L 1803 543 L 1801 543.5 L 1803 548.5 L 1802 549.5 L 1808 555.5 L 1809 559 L 1812 560.5 L 1812 563.5 L 1816 570.5 L 1816 572.5 L 1817 577.5 L 1815 589 L 1813 589 L 1813 593 L 1811 593 L 1811 597.5 L 1809 598 L 1809 600.5 Q 1804.6 604.5 1804 611 Q 1801.3 609.9 1802 612.5 L 1799 614 L 1793.5 621 L 1790.5 623 L 1788.5 623 L 1782.5 625 L 1780.5 625 L 1771.5 624 L 1769.5 622 L 1762 620 L 1762 618 Q 1756.8 619.7 1758 616 L 1753.5 616 L 1748 614 Q 1749.1 611.3 1746.5 612 L 1743 614 L 1741.5 617 L 1737.5 620 L 1735 620 Q 1735.8 623.8 1732.5 625 L 1731 625 L 1731 627 Q 1728.3 625.9 1729 628.5 L 1725 635 Q 1722.3 633.9 1723 636.5 L 1719 639 L 1716 646 Q 1713.3 644.9 1714 647.5 L 1709 654 Q 1706.3 652.9 1707 655.5 L 1704 657 L 1702.5 660 L 1700 661.5 L 1698.5 664 L 1692 666 L 1690.5 669 L 1686.5 671 L 1684.5 671 L 1679.5 672 L 1677.5 672 L 1673.5 672 L 1667.5 669 L 1663 668.5 L 1663.5 667 L 1659 667 L 1659 665 L 1654 665 Q 1655.1 662.3 1652.5 663 L 1650 662 Q 1651.1 659.3 1648.5 660 L 1645.5 656 Q 1642.2 657.1 1643 654.5 Q 1640 653.3 1641 649 Q 1638.3 650.1 1639 647.5 L 1636 643.5 L 1634 627.5 L 1636 617.5 L 1639.5 613 Q 1642.1 613.8 1641 610.5 L 1645 608 Q 1643.9 605.3 1646.5 606 L 1648 603 Q 1650.7 604.1 1650 601.5 L 1651 599 Q 1653.7 600.1 1653 597.5 L 1654 595 Q 1656.7 596.1 1656 593.5 L 1659 589.5 L 1661 581.5 L 1670 568.5 L 1671 560.5 L 1658 542.5 L 1655 536 L 1651 533.5 L 1648 528 L 1644 526.5 L 1644 524 Q 1640.2 525.5 1641 522.5 L 1638 521 Q 1639.1 518.3 1636.5 519 L 1634 518 L 1632.5 515 L 1624.5 510 L 1622 510 Q 1623.1 507.3 1620.5 508 L 1614 504 Q 1615.1 501.3 1612.5 502 L 1610 501 L 1608 492.5 L 1608 490.5 L 1607 485.5 L 1608 480 L 1611 478.5 L 1618.5 470 L 1621 468.5 L 1624.5 464 L 1629 461.5 Q 1627.9 458.2 1630.5 459 L 1636 452 Q 1638.7 453.1 1638 450.5 L 1648.5 438 Q 1650.8 438.8 1650 436.5 L 1655 432.5 L 1658.5 428 Q 1662.5 428.5 1663 425.5 L 1664.5 423 L 1675 416.5 Q 1674.3 414.3 1676.5 415 L 1681 412 L 1682.5 409 L 1697 397.5 Q 1696.2 394.9 1699.5 396 L 1704.5 391 L 1707.5 391 L 1715.5 385 L 1718 386 Q 1716.9 383.3 1719.5 384 L 1731.5 379 L 1734.5 376 L 1736.5 376 L 1752.5 369 Q 1754 371.5 1755.5 368 L 1757.5 367 Z M 1760 379 L 1760 381 L 1754 384 L 1743 393 L 1739 394 L 1736 397 L 1724 403 Q 1721 402 1722 405 L 1716 408 Q 1713 407 1714 410 L 1707 414 L 1705 417 Q 1701 416 1700 420 Q 1696 419 1698 423 L 1696 424 Q 1693 423 1694 426 L 1684 433 L 1682 436 L 1677 439 L 1675 439 L 1674 442 L 1672 442 L 1668 445 L 1666 448 L 1660 452 L 1659 455 Q 1660 457 1657 456 L 1656 459 Q 1657 461 1654 460 L 1650 466 Q 1651 468 1649 467 L 1646 471 L 1643 473 L 1640 477 L 1635 481 Q 1631 480 1633 484 L 1632 484 L 1629 488 L 1633 490 Q 1636 489 1635 492 L 1639 492 L 1639 494 L 1642 494 L 1654 503 Q 1657 502 1655 506 L 1659 507 L 1661 510 Q 1663 509 1662 512 L 1665 513 L 1667 518 L 1671 520 L 1672 525 L 1675 526 L 1677 531 L 1677 533 L 1680 534 L 1690 552 L 1689 555 Q 1690 559 1687 558 Q 1688 562 1685 564 L 1683 579 L 1680 584 Q 1682 589 1678 588 L 1678 593 L 1672 605 Q 1673 608 1670 607 L 1670 611 L 1665 618 L 1661 621 Q 1662 624 1659 623 L 1657 628 L 1660 633 L 1663 634 Q 1665 633 1664 636 L 1676 642 Q 1678 641 1677 644 L 1681 644 L 1683 644 L 1691 639 L 1692 636 L 1695 635 Q 1694 632 1697 633 L 1701 627 L 1704 625 L 1705 623 Q 1704 620 1707 621 L 1708 619 L 1710 616 L 1713 614 L 1717 609 Q 1716 606 1719 607 L 1722 603 Q 1726 604 1724 600 L 1731 596 Q 1733 597 1732 594 L 1738 591 L 1739 591 L 1739 586 L 1741 586 L 1743 583 L 1753 583 L 1754 584 Q 1759 583 1758 586 L 1762 586 L 1762 588 L 1765 589 Q 1767 588 1766 591 L 1770 591 L 1770 593 L 1784 602 L 1789 600 L 1790 598 Q 1789 595 1793 596 Q 1792 592 1795 590 Q 1794 586 1797 587 Q 1796 584 1799 583 Q 1800 576 1796 574 L 1793 572 L 1792 569 Q 1789 570 1790 567 L 1785 564 L 1783 561 L 1780 558 L 1781 557 L 1779 553 Q 1781 547 1778 546 L 1778 538 L 1780 530 L 1789 514 Q 1788 509 1791 510 Q 1790 505 1794 504 Q 1793 500 1796 501 Q 1795 498 1798 497 Q 1799 492 1797 491 Q 1794 492 1795 490 L 1793 488 L 1788 484 L 1788 481 L 1778 479 L 1770 482 L 1769 485 Q 1770 487 1767 486 L 1767 489 L 1756 505 Q 1757 507 1754 506 L 1754 508 L 1752 509 Q 1749 508 1750 511 L 1747 514 Q 1745 511 1744 515 L 1740 515 L 1731 509 L 1728 505 L 1728 503 L 1724 503 L 1723 500 Q 1720 501 1721 499 L 1717 496 L 1717 494 L 1713 494 L 1712 491 L 1709 491 Q 1710 487 1708 488 L 1701 479 L 1701 473 L 1701 471 L 1702 461 L 1704 458 L 1711 452 Q 1713 453 1712 450 L 1717 447 L 1720 447 L 1727 442 L 1729 442 L 1735 437 L 1741 435 L 1744 432 L 1764 421 Q 1766 422 1765 419 L 1773 416 L 1779 409 L 1763 381 L 1760 379 Z " /><path fill="rgb(255,255,255)" stroke="rgb(255,255,255)" stroke-width="1" opacity="0.8862745098039215" d="M 531.5 373 L 545.5 377 L 565 389.5 Q 564.3 391.8 566.5 391 L 577 399 L 579.5 403 L 596 418.5 L 599.5 423 Q 601.8 422.3 601 424.5 L 607 429 Q 606.3 432.8 609.5 434 L 613 436.5 L 630 458 Q 632.7 456.9 632 459.5 L 640 470 Q 642.7 468.9 642 471.5 L 649.5 482 Q 651.8 481.3 651 483.5 L 657 493 Q 659.7 491.9 659 494.5 L 678 524.5 L 685 539.5 L 688 542.5 L 711 588.5 Q 712.7 597.8 718 603.5 L 719 608.5 L 725 618.5 L 725 622.5 L 731 632.5 L 731 635.5 L 736 644.5 L 737 650.5 L 741 659.5 L 742 676.5 L 738.5 679 L 734 676 L 725 662.5 L 725 659.5 L 719 649.5 L 719 646.5 L 713 635.5 L 713 632.5 L 707 622.5 L 707 618.5 L 701 608.5 L 701 605.5 L 689 583.5 L 689 580.5 L 678 560.5 L 675 552 Q 672.3 553.1 673 550.5 L 672 546.5 L 666 538.5 L 666 535.5 L 660 527.5 L 659 523.5 L 648 507.5 L 644 499 Q 641 500.3 642 496.5 L 640 493 Q 637.3 494.1 638 491.5 Q 635.3 490.4 636 487 Q 633.3 488.1 634 485.5 L 627 476 Q 624.3 477.1 625 474.5 L 621.5 470 L 619 468.5 L 616.5 464 L 613 461.5 L 612 458 L 607 454.5 L 605.5 452 L 601 448.5 Q 602.1 445.2 599.5 446 L 595 440 L 589 435.5 Q 589.8 433.3 587.5 434 L 558.5 404 L 554 400.5 Q 554.8 398.3 552.5 399 L 539.5 387 L 536 386 L 532.5 381 L 530 379.5 L 528 374 L 531.5 373 Z " /><path fill="rgb(255,255,255)" stroke="rgb(255,255,255)" stroke-width="1" opacity="0.8862745098039215" d="M 690 376 L 697.5 376 L 707 382.5 Q 706.3 384.8 708.5 384 L 713 387 L 717.5 393 Q 719.8 392.3 719 394.5 L 728.5 405 Q 730.8 404.3 730 406.5 L 736 413.5 L 737 417 Q 739.7 415.9 739 418.5 L 746 429 Q 749 427.8 748 431.5 L 749 434 Q 751.7 432.9 751 435.5 L 760 447.5 L 761 452 Q 763.7 450.9 763 453.5 L 778 477.5 L 779 482 Q 781.7 480.9 781 483.5 L 801 520.5 L 819 563.5 L 827.5 575 L 831 574 Q 829.9 571.3 832.5 572 L 844.5 568 L 859.5 568 L 871.5 571 L 883 580.5 L 885 593.5 L 883 603.5 L 878 613.5 L 867.5 625 Q 865.3 624.3 866 626.5 L 860 630 L 858.5 633 L 847.5 641 L 843 642 Q 844.1 644.7 841.5 644 L 830.5 651 L 803.5 663 L 797.5 664 L 782.5 670 L 778.5 670 L 770.5 674 L 759.5 675 L 754.5 674 L 752 671.5 Q 752.5 666 756.5 664 L 766.5 659 L 771.5 659 L 786.5 653 L 793.5 652 L 802.5 647 L 805.5 647 L 818.5 641 L 827.5 635 L 831 635 Q 829.9 632.3 832.5 633 Q 835.3 628.8 841.5 628 L 860 613.5 L 861.5 611 L 865 608.5 L 872 598.5 L 873 588.5 L 872 586 L 863.5 582 L 847.5 581 Q 846.2 583.3 841.5 582 L 832.5 588 L 822.5 588 L 813 579.5 L 813 577.5 L 807 569.5 L 807 566.5 L 801 556.5 L 801 552.5 L 799 550.5 L 794 536.5 L 782 512.5 L 779 509.5 L 777 503.5 L 766 486.5 L 766 484.5 L 754 467.5 L 754 464 Q 751.3 465.1 752 462.5 L 746 452 Q 743.3 453.1 744 450.5 L 735 435.5 L 731 431.5 L 731 429.5 L 719 414.5 L 718 411 L 714 408.5 L 713 405 Q 710.3 406.1 711 403.5 L 703 393 Q 700.3 394.1 701 391.5 L 698 387 L 695 385.5 L 690 379.5 L 690 376 Z " /><path fill="rgb(255,255,255)" stroke="rgb(255,255,255)" stroke-width="1" opacity="0.8862745098039215" d="M 179.5 436 L 191.5 436 L 192.5 437 L 194.5 436 L 200.5 438 L 201.5 437 L 206.5 440 L 219.5 445 L 223 448.5 L 228 457.5 L 231 481.5 L 230 483.5 L 232 491.5 L 231 494.5 L 232 496.5 L 231 498.5 L 232 501.5 L 231 503.5 L 232 506.5 L 231 508.5 L 232 511.5 L 232 513.5 L 231 517.5 L 233 527.5 L 233 529.5 L 233 567.5 L 232 572 Q 239.5 571.8 244.5 568 L 248.5 568 Q 252.3 564.3 259.5 564 L 261.5 562 L 269 561 L 268 553.5 L 263 545.5 L 257 528.5 L 257 523.5 L 255 516.5 L 256 515.5 L 256 503.5 L 260 490 Q 263 491.3 262 487.5 L 270.5 481 L 281.5 477 L 286.5 477 L 292.5 474 L 301.5 473 L 304.5 471 Q 309.3 472.3 310.5 470 L 325.5 470 L 336 476.5 L 338 479.5 L 342 484.5 L 343 492.5 L 345 496.5 L 348 518.5 Q 350.6 529.1 356 536 L 360 538.5 Q 359.3 540.8 361.5 540 L 363.5 543 L 372.5 538 L 376.5 538 Q 381 533.5 389.5 533 L 391.5 531 L 400.5 530 L 402.5 530 L 409.5 532 L 411.5 532 L 419.5 535 L 422 537.5 L 424 540.5 L 433 553.5 L 436 567.5 L 438 569.5 L 439 581.5 L 440 582.5 L 439 585.5 L 439 587.5 Q 438.7 600.2 431.5 606 L 418.5 612 L 410.5 618 L 408 618 L 408 620 L 406 620 Q 407.1 622.7 404.5 622 L 393 632.5 Q 393.7 635.1 391 634 L 391 638.5 L 403 666.5 L 405 679.5 L 407 682.5 L 409 694.5 L 411 697.5 L 411 702.5 L 413 704.5 Q 412 710.5 415 712.5 L 416 730.5 L 414 734.5 L 414 737.5 L 409 748 L 401.5 753 L 385.5 760 L 371.5 763 L 369.5 765 L 364.5 765 L 361.5 767 L 349.5 768 L 345.5 767 L 337 759.5 L 325 741.5 Q 323.8 731.7 318 726.5 L 316 718.5 L 312 712.5 L 311 706.5 L 306 699.5 L 302 689.5 L 292 672 L 271.5 677 L 269.5 679 Q 262.3 679.3 258.5 683 L 254.5 683 L 247.5 687 L 229.5 693 L 223.5 697 L 217.5 698 L 202.5 705 L 189.5 706 L 182 702 L 182 700 Q 179.3 701.1 180 698.5 L 173 687.5 L 173 681.5 Q 170 678.5 170 672.5 L 167 668.5 L 162 652.5 L 158 646.5 L 157 639.5 L 154 635.5 Q 153.7 628.3 150 624.5 L 146 604.5 L 146 589.5 L 147 587.5 L 146 585.5 Q 148.8 583.7 147 577.5 L 146 574.5 L 146 572.5 L 147 568.5 L 146 565.5 L 146 563.5 L 146 543.5 L 145 542.5 Q 146.5 535 144 531.5 L 145 528.5 L 144 525.5 L 145 523.5 L 144 522.5 L 144 503.5 L 143 501.5 L 144 499.5 L 143 497.5 L 144 494.5 L 144 492.5 Q 142.8 487.7 145 486.5 L 145 484.5 L 144 480.5 L 147 471.5 L 147 464.5 Q 149.6 461.6 149 455.5 L 153.5 447 Q 155.8 447.8 155 445.5 L 165.5 439 L 179.5 436 Z M 168 457 L 169 462 L 169 474 L 164 495 L 164 497 L 162 501 L 162 503 L 159 512 L 159 520 L 159 522 L 158 524 L 159 527 L 158 530 L 158 532 L 159 536 L 158 539 L 164 571 L 163 574 Q 166 577 164 586 L 164 588 L 165 591 L 164 594 L 167 614 L 169 616 L 170 623 L 173 627 L 173 632 L 181 648 L 181 653 L 189 674 L 189 679 L 193 685 Q 197 686 198 683 L 202 683 L 215 676 L 219 676 L 223 673 L 235 668 L 241 667 L 245 664 L 256 660 L 261 660 L 263 658 L 272 656 L 274 654 L 296 649 L 307 655 L 318 670 L 330 690 L 331 695 L 336 702 L 341 718 L 346 727 L 346 730 L 355 743 Q 357 740 364 741 L 366 739 L 373 738 L 375 736 L 382 735 L 385 733 L 389 733 L 395 729 L 397 725 L 396 717 L 394 714 L 394 709 L 388 690 L 386 676 L 381 662 L 379 660 L 378 653 L 373 641 Q 372 629 376 624 L 389 611 Q 391 612 390 609 L 395 606 Q 397 607 396 604 L 411 595 L 414 595 L 420 591 L 421 589 L 418 573 L 411 556 Q 410 551 405 552 L 402 551 L 395 551 Q 393 553 389 552 L 386 554 L 377 554 L 376 555 L 365 553 L 362 555 Q 356 554 355 556 L 351 553 L 344 547 L 332 528 L 325 505 L 325 499 L 323 494 L 320 491 L 305 493 L 283 502 L 278 508 Q 280 513 277 515 L 280 531 L 282 533 L 286 549 Q 291 553 292 562 L 289 575 L 282 580 L 270 583 L 259 589 L 245 592 L 243 594 L 232 595 L 231 596 L 224 593 Q 214 586 212 573 L 215 559 L 214 555 L 214 553 L 215 551 L 214 549 L 215 547 Q 217 534 214 527 L 214 525 L 214 504 L 215 503 L 214 502 L 214 483 L 213 482 L 214 480 L 213 477 L 214 474 L 212 465 L 203 460 L 198 460 L 196 460 L 190 458 L 174 458 L 168 457 Z " /><path fill="rgb(255,255,255)" stroke="rgb(255,255,255)" stroke-width="1" opacity="0.8862745098039215" d="M 1314.5 505 L 1319.5 505 L 1326 509 L 1336 525.5 L 1338 530.5 L 1338 534.5 L 1337 538 L 1331.5 539 L 1320.5 535 L 1310.5 534 L 1306.5 532 L 1287 530 L 1288 524.5 L 1294.5 517 L 1297 515.5 Q 1296.3 513.3 1298.5 514 L 1314.5 505 Z M 1318 513 L 1299 525 L 1316 527 L 1321 529 L 1327 529 L 1326 524 L 1321 516 L 1318 513 Z " /><path fill="rgb(255,255,255)" stroke="rgb(255,255,255)" stroke-width="1" opacity="0.8862745098039215" d="M 1197.5 508 L 1207.5 508 Q 1215.5 510.5 1220 516.5 L 1226 526.5 L 1227 542.5 L 1226 545 L 1222 542.5 L 1211.5 523 Q 1208.6 518.4 1201.5 518 L 1197 520 L 1186 541.5 L 1185 547.5 L 1181 556 L 1179 555.5 L 1179 541.5 L 1187 517 Q 1189.7 518.1 1189 515.5 Q 1191.8 514.4 1191 511 L 1197.5 508 Z " /><path fill="rgb(255,255,255)" stroke="rgb(255,255,255)" stroke-width="1" opacity="0.8862745098039215" d="M 1230 536 L 1259.5 539 L 1260.5 540 L 1270.5 540 L 1271.5 541 L 1296.5 541 L 1297.5 542 L 1315.5 544 L 1325.5 547 L 1331.5 547 L 1369.5 559 L 1385 567 L 1386.5 570 Q 1390.5 569.5 1391 572.5 L 1393.5 576 L 1397 578.5 L 1401 588.5 L 1401 599.5 L 1397 614.5 L 1393 623 Q 1390 621.8 1391 625.5 L 1387.5 629 L 1366.5 635 L 1362.5 635 L 1348.5 643 L 1343.5 645 L 1339.5 645 Q 1330.4 643.1 1326 636.5 L 1324 625.5 Q 1326.7 623.2 1326 617.5 L 1334.5 608 L 1350.5 600 L 1355.5 600 L 1369.5 596 L 1385.5 595 L 1391 597 L 1391 589.5 L 1378.5 576 L 1359.5 566 L 1354.5 564 L 1350.5 564 L 1335.5 558 L 1329.5 558 L 1325.5 556 L 1302.5 552 L 1280.5 552 L 1279.5 551 L 1250.5 550 L 1239.5 548 L 1232 543.5 Q 1229 541.3 1230 536 Z " /><path fill="rgb(255,255,255)" stroke="rgb(255,255,255)" stroke-width="1" opacity="0.8862745098039215" d="M 1032.5 541 L 1060.5 541 Q 1068.3 542.7 1073 547.5 Q 1074 552 1071.5 553 L 1069.5 552 L 1067 553 Q 1068.1 555.7 1065.5 555 L 1052 566.5 L 1046 576.5 L 1045 585.5 Q 1046.3 591.3 1050.5 594 L 1068.5 593 L 1079.5 590 L 1110.5 590 L 1111.5 591 L 1119.5 591 L 1141.5 595 L 1146.5 597 L 1150 600.5 Q 1150.9 603.5 1146.5 602 Q 1145 604.5 1139.5 603 L 1138.5 602 L 1077.5 602 L 1076.5 603 L 1061.5 603 L 1057.5 605 L 1045.5 605 L 1037 598.5 Q 1037.8 593.2 1035 591.5 L 1035 580.5 Q 1037.6 577.6 1037 571.5 L 1046.5 558 L 1049 556.5 L 1051.5 553 L 1058 549.5 L 1042.5 549 L 1032.5 552 L 1027.5 552 L 1018.5 558 L 1014 559 L 1010.5 564 L 1008 565.5 L 1005 573.5 L 1005 582.5 L 1009 592.5 L 1015.5 600 L 1026 607.5 L 1028.5 611 L 1031 612.5 L 1037 620.5 L 1038 630.5 L 1035.5 632 L 1027.5 623 Q 1025.3 623.8 1026 621.5 L 1002 600.5 L 996 588.5 L 996 570.5 L 1002 560.5 L 1002 558 L 1014 550 Q 1012.9 547.3 1015.5 548 L 1032.5 541 Z " /><path fill="rgb(255,255,255)" stroke="rgb(255,255,255)" stroke-width="1" opacity="0.8862745098039215" d="M 1181.5 558 Q 1183.8 557.3 1183 559.5 L 1183 561.5 L 1179 574.5 L 1173 583.5 L 1173 587.5 L 1163.5 604 Q 1161.3 604.8 1162 602.5 Q 1158.4 600.6 1159 594.5 L 1161 583.5 L 1164 576.5 L 1175.5 562 L 1181.5 558 Z " /><path fill="rgb(255,255,255)" stroke="rgb(255,255,255)" stroke-width="1" opacity="0.8862745098039215" d="M 1312.5 574 Q 1318.3 573.2 1320 576.5 Q 1322.5 580 1321 587.5 L 1318.5 592 L 1312.5 594 L 1309 591.5 Q 1305.7 587.8 1307 579.5 L 1309.5 575 L 1312.5 574 Z " /><path fill="rgb(255,255,255)" stroke="rgb(255,255,255)" stroke-width="1" opacity="0.8862745098039215" d="M 1259.5 575 Q 1266.3 574.1 1269 576 L 1271 585.5 Q 1270.1 592.1 1265.5 595 L 1261.5 596 L 1256 594 L 1254 588.5 L 1254 582.5 L 1256 576 L 1259.5 575 Z " /><path fill="rgb(255,255,255)" stroke="rgb(255,255,255)" stroke-width="1" opacity="0.8862745098039215" d="M 1025.5 626 Q 1030.3 624.7 1029 628 L 1012.5 639 L 990.5 650 L 987.5 653 L 984 653 L 982.5 656 Q 972.3 661.3 966 670.5 L 958 682 L 955 683.5 L 955 685.5 L 938 707.5 L 937 711.5 L 931 720.5 L 931 726 L 943 723 Q 941.9 720.3 944.5 721 L 957.5 712 L 961 712 Q 959.9 709.3 962.5 710 L 982.5 700 L 995.5 699 Q 996.8 701.2 1001.5 700 L 1004 702.5 L 1001.5 706 L 970.5 718 L 953.5 729 L 950.5 729 L 942.5 735 L 927.5 737 L 920 732.5 Q 917.5 729 919 721.5 L 925 710.5 L 925 707.5 Q 931 702 933 694 Q 935.7 695.1 935 692.5 L 946 676 L 949 674.5 Q 948.5 670.5 951.5 670 L 954 668.5 L 955 665 L 961 660.5 Q 960.3 658.3 962.5 659 L 967 653 Q 970.8 653.8 972 650.5 Q 971.3 648.3 973.5 649 L 985.5 641 L 988.5 641 L 998.5 635 L 1001.5 635 L 1013.5 629 L 1017.5 629 L 1025.5 626 Z " /><path fill="rgb(255,255,255)" stroke="rgb(255,255,255)" stroke-width="1" opacity="0.8862745098039215" d="M 1392.5 633 L 1414.5 635 L 1420.5 637 L 1433 645.5 Q 1432.3 647.8 1434.5 647 L 1438 653 Q 1440.7 651.9 1440 654.5 L 1461 690.5 L 1468 714.5 L 1468 730.5 L 1462 749.5 L 1462 755.5 L 1459 764.5 L 1455 772.5 L 1447.5 782 L 1425.5 794 L 1422.5 794 L 1414.5 800 L 1410.5 800 L 1408.5 802 L 1396.5 806 L 1379.5 807 L 1378.5 806 L 1370.5 806 L 1357.5 800 Q 1354.1 795.4 1347.5 794 L 1338 785.5 L 1336.5 782 L 1334 780.5 L 1322.5 765 Q 1320.3 765.8 1321 763.5 L 1315 759 L 1313 753 Q 1310 754.3 1311 750.5 Q 1307.3 746.2 1309 736.5 L 1310 735.5 L 1310 723.5 L 1311 722.5 L 1311 706.5 L 1313 700.5 Q 1310.5 699 1312 693.5 L 1314 686 L 1309 685 Q 1310.1 682.3 1307.5 683 L 1303 680.5 L 1301 674.5 L 1302 670 Q 1307.6 669 1309 673.5 L 1310.5 676 L 1314 678.5 L 1315.5 682 L 1330 664 Q 1333 665.3 1332 661.5 L 1339.5 653 L 1346.5 647 L 1357.5 641 L 1362.5 641 L 1378.5 635 L 1384.5 635 L 1392.5 633 Z M 1394 647 L 1363 656 L 1351 664 L 1348 668 L 1344 670 L 1343 675 L 1341 676 L 1338 681 L 1336 682 L 1332 687 Q 1333 689 1331 688 L 1326 694 Q 1326 704 1322 710 L 1323 745 L 1331 753 Q 1333 752 1332 755 L 1338 759 L 1338 762 L 1344 773 L 1349 777 Q 1351 776 1350 779 L 1364 788 L 1367 788 L 1379 794 L 1392 794 L 1401 792 L 1419 783 L 1436 777 L 1444 771 L 1444 769 L 1450 759 L 1450 751 L 1456 725 L 1453 709 L 1448 695 L 1433 670 L 1432 666 Q 1433 663 1430 664 L 1427 659 Q 1423 653 1416 651 L 1405 648 L 1394 647 Z " /><path fill="rgb(255,255,255)" stroke="rgb(255,255,255)" stroke-width="1" opacity="0.8862745098039215" d="M 949.5 667 L 950 669.5 L 946 675 L 925 692.5 Q 925.8 694.8 923.5 694 L 917 701.5 L 917 708 L 909 706 Q 907.8 699 911 695.5 L 919.5 687 L 925 684 Q 923.8 681 927.5 682 L 933.5 676 L 935.5 676 L 949.5 667 Z " /><path fill="rgb(255,255,255)" stroke="rgb(255,255,255)" stroke-width="1" opacity="0.8862745098039215" d="M 1380.5 681 L 1398.5 682 L 1409 688 L 1414 695.5 L 1420 714.5 Q 1422.6 722.4 1421 734.5 Q 1418.6 746.1 1410.5 752 L 1396.5 759 L 1381.5 761 L 1374 756.5 L 1371.5 753 L 1368 750.5 L 1362 743.5 L 1358 733.5 L 1356 725.5 L 1354 702.5 L 1357 694 Q 1359.7 695.1 1359 692.5 L 1369.5 684 L 1380.5 681 Z M 1395 693 L 1394 694 L 1383 694 L 1372 700 Q 1365 706 1362 715 Q 1364 735 1378 744 Q 1380 743 1379 746 L 1385 750 Q 1400 751 1406 743 Q 1408 744 1407 741 L 1409 741 L 1412 733 L 1412 719 L 1409 711 L 1409 706 L 1403 694 L 1395 693 Z " /><path fill="rgb(255,255,255)" stroke="rgb(255,255,255)" stroke-width="1" opacity="0.8862745098039215" d="M 1266.5 704 L 1270 705.5 L 1274 717.5 L 1282 729 L 1285 730.5 L 1285 732.5 L 1291 738.5 L 1291 741 L 1295 743.5 L 1306.5 759 Q 1308.8 758.3 1308 760.5 L 1317 777.5 L 1318 791.5 L 1313.5 800 Q 1308.2 806.2 1294.5 804 L 1279 796.5 Q 1279.8 794.3 1277.5 795 L 1273 793 L 1269.5 788 L 1259 778.5 L 1257.5 776 Q 1255.3 776.8 1256 774.5 Q 1250 771.4 1249 765 L 1245 762.5 L 1238 752.5 L 1235 744 L 1237.5 744 L 1244 748.5 L 1252.5 759 L 1256 761.5 L 1258.5 765 L 1261 766.5 L 1264.5 771 L 1267 772.5 L 1270.5 777 L 1273 778.5 L 1275.5 782 L 1279 783.5 Q 1278.3 785.8 1280.5 785 L 1294.5 794 L 1306.5 794 L 1309 791.5 L 1310 782.5 L 1309 777.5 L 1300.5 765 L 1297 762.5 L 1295.5 759 L 1291 755.5 L 1285 747 L 1280 743.5 L 1270 729 Q 1267.3 730.1 1268 727.5 L 1263 719.5 L 1261 709.5 L 1264.5 705 L 1266.5 704 Z " /><path fill="rgb(255,255,255)" stroke="rgb(255,255,255)" stroke-width="1" opacity="0.8862745098039215" d="M 1021.5 706 L 1047.5 718 L 1051.5 718 L 1061.5 723 L 1071.5 725 L 1079.5 729 L 1084.5 729 L 1101.5 735 L 1107.5 735 L 1129.5 741 L 1138.5 741 L 1161.5 745 L 1188.5 746 L 1189.5 745 L 1198.5 745 L 1213.5 742 L 1222.5 742 L 1225 743 L 1223.5 747 L 1212.5 753 L 1207.5 753 L 1195.5 756 L 1179.5 756 L 1178.5 755 L 1165.5 755 L 1154.5 753 L 1142.5 753 L 1114.5 747 L 1108.5 747 L 1089.5 741 L 1084.5 741 L 1069.5 735 L 1065.5 735 L 1053.5 729 L 1049.5 729 L 1039.5 723 L 1032.5 721 L 1021 712.5 L 1020 707.5 L 1021.5 706 Z " /><path fill="rgb(255,255,255)" stroke="rgb(255,255,255)" stroke-width="1" opacity="0.8862745098039215" d="M 1287.5 716 L 1292.5 716 L 1303 719 L 1303 723 L 1301.5 723 L 1298.5 725 L 1288.5 726 L 1282 723 Q 1281 718.3 1284.5 717 L 1287.5 716 Z " /><path fill="rgb(0,0,0)" stroke="rgb(0,0,0)" stroke-width="1" opacity="0" d="M 0 0 L 1920 0 L 1920 845 L 0 845 L 0 0 Z M 781 39 L 780 40 L 769 41 L 760 45 L 756 45 L 734 58 L 731 62 L 729 63 L 725 68 L 723 69 L 713 83 L 713 86 L 707 98 Q 709 103 706 105 L 706 117 L 709 128 L 715 130 L 716 129 L 716 111 L 719 103 L 719 99 L 725 87 L 735 75 Q 737 76 736 74 L 746 65 L 756 59 L 778 51 L 799 51 L 811 54 Q 815 58 823 58 L 837 65 L 848 73 Q 850 72 849 75 L 852 75 L 855 80 L 860 82 L 861 85 Q 860 87 863 86 L 877 106 L 884 126 L 884 147 L 881 157 L 874 168 Q 870 174 863 177 L 860 181 L 852 187 Q 847 190 848 197 L 852 197 L 861 193 L 865 193 L 871 189 Q 873 190 872 187 L 876 186 L 878 183 L 881 181 L 890 170 L 896 156 L 896 148 L 897 147 L 897 132 L 896 131 L 895 118 L 890 108 L 890 105 L 875 84 L 853 63 L 851 63 L 832 51 L 829 51 L 818 45 L 814 45 L 803 41 L 792 40 L 791 39 L 781 39 Z M 285 101 L 266 105 L 240 116 L 209 135 L 197 145 Q 193 144 194 147 L 178 162 Q 179 164 176 163 L 172 171 L 171 176 L 173 187 L 178 195 L 187 202 Q 189 201 188 204 L 191 204 L 198 209 L 203 210 L 214 216 L 222 218 L 239 228 Q 242 227 241 230 L 252 236 L 253 239 L 257 240 L 290 269 L 293 270 L 294 273 Q 295 275 299 275 L 300 278 L 323 294 L 324 297 L 328 299 Q 331 298 330 301 L 358 320 Q 360 319 359 322 L 364 323 L 376 332 Q 378 331 377 334 L 380 334 L 396 344 L 403 346 L 414 352 L 418 352 L 437 358 L 453 358 L 454 359 L 514 358 L 548 352 L 556 352 Q 558 349 565 350 L 572 346 L 575 346 L 579 340 Q 580 335 578 334 L 568 334 L 544 340 L 536 340 L 503 346 L 484 346 L 483 347 L 447 347 L 446 346 L 433 346 L 425 344 L 416 340 L 413 340 L 395 331 L 361 308 Q 358 309 359 306 L 355 304 Q 352 305 353 303 L 337 291 L 335 288 L 332 287 L 317 275 L 284 246 Q 281 247 282 244 L 267 231 Q 264 232 265 230 L 240 212 L 223 204 L 219 204 L 197 192 L 194 189 L 192 187 L 187 180 Q 187 173 191 171 Q 190 168 193 169 L 194 167 L 220 145 L 233 138 L 237 134 L 241 133 L 260 122 L 264 122 L 279 116 L 298 116 L 309 122 L 312 127 L 317 129 L 318 132 L 322 134 L 324 138 L 327 139 L 330 144 L 334 145 L 335 148 L 352 159 Q 354 158 353 161 L 380 174 L 389 176 L 401 181 L 406 181 L 428 187 L 440 187 L 449 189 L 463 189 L 464 190 L 497 190 L 498 189 L 520 188 L 521 187 L 533 187 L 552 183 L 556 181 L 563 181 L 580 175 L 589 174 L 601 169 L 606 169 L 620 163 L 624 163 L 636 157 L 642 156 L 650 151 L 653 151 L 665 145 L 691 128 Q 697 126 695 117 L 690 117 L 682 122 L 679 122 L 672 127 L 667 128 L 660 133 L 655 134 L 647 139 L 621 147 L 613 151 L 608 151 Q 606 154 602 153 L 594 157 L 585 158 L 576 162 L 567 163 L 554 168 L 544 169 L 530 173 L 519 174 L 518 175 L 500 175 L 499 176 L 445 175 L 409 168 L 397 163 L 393 163 L 382 157 L 379 157 L 368 151 L 350 138 L 347 134 L 344 133 L 341 130 L 339 128 L 335 124 L 326 116 L 324 113 L 308 104 L 294 101 L 285 101 Z M 811 110 L 806 113 Q 801 116 799 123 L 800 127 Q 803 130 811 129 Q 813 130 811 132 L 813 134 L 820 126 L 819 123 L 820 120 L 820 118 L 815 122 L 808 122 L 807 121 L 814 116 L 817 112 Q 816 109 811 110 Z M 840 134 L 837 135 L 835 140 L 835 145 L 837 148 L 842 150 L 841 154 Q 845 155 847 151 L 854 151 Q 855 147 852 146 L 854 140 Q 849 139 848 143 Q 843 144 842 141 Q 844 137 849 138 L 849 134 L 840 134 Z M 818 145 L 811 148 Q 804 151 806 163 L 812 167 L 819 167 L 825 163 L 825 161 L 828 157 L 828 150 Q 827 144 818 145 Z M 857 204 L 856 208 L 856 213 L 867 231 L 872 234 L 877 240 Q 879 239 878 242 L 895 254 L 896 257 L 901 258 L 916 269 Q 920 268 919 271 L 927 275 L 930 275 L 940 281 L 943 281 L 954 287 L 957 287 Q 965 293 977 295 L 984 299 L 990 300 L 999 305 L 1005 306 L 1015 311 L 1019 311 L 1029 316 L 1033 316 L 1042 319 L 1049 322 L 1055 329 L 1053 333 L 1048 334 L 1038 340 L 1033 347 L 1034 352 L 1048 360 Q 1050 359 1049 362 L 1053 364 Q 1055 363 1054 366 L 1041 372 L 1036 378 Q 1035 389 1043 392 Q 1042 394 1045 393 L 1049 399 L 1049 403 L 1044 405 L 1037 412 L 1037 419 L 1023 417 L 1013 411 L 1006 409 L 996 409 L 995 412 L 997 419 L 1003 423 Q 1008 423 1010 426 L 1025 430 L 1044 429 L 1047 426 L 1049 415 L 1058 411 L 1061 406 L 1061 396 L 1052 383 L 1049 381 L 1056 376 L 1060 375 L 1064 369 Q 1066 362 1063 361 L 1063 358 Q 1060 359 1061 357 L 1048 347 L 1060 340 L 1063 333 Q 1064 323 1059 319 L 1047 311 L 1041 310 L 1031 305 L 1028 305 L 1018 299 L 1015 299 L 995 289 L 985 286 L 977 281 L 974 281 L 964 275 L 959 274 L 933 261 L 919 252 L 917 252 L 901 240 L 899 240 L 876 222 L 872 218 L 870 216 L 866 212 L 864 210 L 860 206 L 857 204 Z M 831 212 L 824 214 L 825 216 Q 830 217 831 214 L 831 212 Z M 764 217 L 760 221 L 760 238 L 767 260 L 779 286 L 798 315 Q 797 317 800 316 L 807 326 Q 806 329 809 328 L 817 339 L 839 358 L 858 371 L 854 375 L 851 375 L 845 382 L 843 390 L 828 390 L 823 393 L 820 398 Q 821 404 819 407 L 815 405 L 813 403 L 806 397 L 802 397 L 796 399 L 796 404 L 793 413 Q 784 412 780 405 L 777 401 L 774 399 L 761 385 L 742 357 L 742 354 L 731 338 Q 730 330 725 327 L 725 324 L 719 316 L 719 313 L 713 305 L 712 300 L 684 250 Q 683 247 679 248 L 679 254 Q 683 259 684 268 L 689 276 L 689 279 L 695 289 L 695 292 L 700 300 L 701 305 L 707 315 L 707 318 L 715 334 L 718 337 L 721 345 L 737 371 L 737 373 L 741 377 L 742 381 L 749 391 L 754 396 L 754 398 L 757 399 L 760 404 Q 759 406 762 405 L 762 407 L 771 415 Q 773 414 772 417 Q 778 418 781 423 L 784 423 L 791 427 L 798 426 L 801 423 L 804 415 Q 802 410 806 411 L 807 414 L 820 421 Q 825 422 826 419 Q 825 416 828 417 L 831 401 L 838 402 L 844 402 L 851 399 L 854 393 L 854 388 L 865 381 L 868 374 L 868 368 L 864 360 L 856 354 Q 853 355 854 352 L 852 352 L 839 340 Q 836 341 837 339 L 831 334 L 814 314 L 810 307 L 807 305 L 806 301 L 796 287 L 784 263 L 784 260 L 778 249 L 778 245 L 775 239 L 775 236 L 768 220 Q 768 217 764 217 Z M 856 313 L 854 315 L 854 321 L 858 327 Q 857 329 860 328 L 861 333 L 872 345 Q 871 347 874 346 L 878 352 L 887 358 L 890 363 L 894 364 L 896 368 L 923 386 L 927 387 L 946 398 L 954 400 L 963 405 L 978 408 L 979 406 L 976 402 L 945 384 Q 942 385 943 382 L 939 381 L 921 367 Q 918 368 919 366 L 916 364 L 913 360 L 910 358 Q 907 359 908 357 L 903 352 L 890 339 L 868 319 Q 865 320 866 317 L 856 313 Z M 1758 367 L 1756 368 Q 1754 371 1753 369 L 1737 376 L 1735 376 L 1732 379 L 1720 384 Q 1717 383 1718 386 L 1716 385 L 1708 391 L 1705 391 L 1700 396 Q 1696 395 1697 398 L 1683 409 L 1681 412 L 1677 415 Q 1674 414 1675 417 L 1665 423 L 1663 426 Q 1662 429 1659 428 L 1655 433 L 1650 437 Q 1651 439 1649 438 L 1638 451 Q 1639 453 1636 452 L 1631 459 Q 1628 458 1629 462 L 1625 464 L 1621 469 L 1619 470 L 1611 479 L 1608 480 L 1607 486 L 1608 491 L 1608 493 L 1610 501 L 1613 502 Q 1615 501 1614 504 L 1621 508 Q 1623 507 1622 510 L 1625 510 L 1633 515 L 1634 518 L 1637 519 Q 1639 518 1638 521 L 1641 523 Q 1640 525 1644 524 L 1644 527 L 1648 528 L 1651 534 L 1655 536 L 1658 543 L 1671 561 L 1670 569 L 1661 582 L 1659 590 L 1656 594 Q 1657 596 1654 595 L 1653 598 Q 1654 600 1651 599 L 1650 602 Q 1651 604 1648 603 L 1647 606 Q 1644 605 1645 608 L 1641 611 Q 1642 614 1640 613 L 1636 618 L 1634 628 L 1636 644 L 1639 648 Q 1638 650 1641 649 Q 1640 653 1643 655 Q 1642 657 1646 656 L 1649 660 Q 1651 659 1650 662 L 1653 663 Q 1655 662 1654 665 L 1659 665 L 1659 667 L 1664 667 L 1663 669 L 1668 669 L 1674 672 L 1678 672 L 1680 672 L 1685 671 L 1687 671 L 1691 669 L 1692 666 L 1699 664 L 1700 662 L 1703 660 L 1704 657 L 1707 656 Q 1706 653 1709 654 L 1714 648 Q 1713 645 1716 646 L 1719 639 L 1723 637 Q 1722 634 1725 635 L 1729 629 Q 1728 626 1731 627 L 1731 625 L 1733 625 Q 1736 624 1735 620 L 1738 620 L 1742 617 L 1743 614 L 1747 612 Q 1749 611 1748 614 L 1754 616 L 1758 616 Q 1757 620 1762 618 L 1762 620 L 1770 622 L 1772 624 L 1781 625 L 1783 625 L 1789 623 L 1791 623 L 1794 621 L 1799 614 L 1802 613 Q 1801 610 1804 611 Q 1805 605 1809 601 L 1809 598 L 1811 598 L 1811 593 L 1813 593 L 1813 589 L 1815 589 L 1817 578 L 1816 573 L 1816 571 L 1812 564 L 1812 561 L 1809 559 L 1808 556 L 1802 550 L 1803 549 L 1801 544 L 1803 543 L 1805 538 Q 1804 533 1807 534 L 1817 511 L 1817 507 L 1820 501 L 1822 491 L 1820 485 L 1818 481 Q 1819 478 1816 479 L 1813 474 L 1805 468 L 1804 465 Q 1801 466 1802 463 L 1795 461 L 1793 459 L 1783 457 L 1780 458 L 1777 457 L 1772 458 L 1770 457 L 1763 462 L 1760 462 Q 1750 470 1745 484 L 1742 486 L 1740 485 L 1737 483 L 1734 479 L 1730 476 Q 1726 477 1727 474 L 1723 473 L 1720 467 L 1729 462 Q 1732 463 1731 460 L 1735 460 L 1740 457 Q 1741 453 1743 456 L 1750 452 Q 1751 448 1753 451 L 1756 448 L 1759 448 L 1771 440 L 1777 438 L 1791 427 L 1796 420 L 1796 417 L 1798 417 L 1798 412 L 1800 412 L 1801 407 L 1798 395 Q 1794 393 1797 392 L 1788 378 L 1785 376 L 1784 373 Q 1781 374 1782 372 L 1773 367 L 1758 367 Z M 532 373 L 528 374 L 530 380 L 533 381 L 536 386 L 540 387 L 553 399 Q 555 398 554 401 L 559 404 L 588 434 Q 590 433 589 436 L 595 440 L 600 446 Q 602 445 601 449 L 606 452 L 607 455 L 612 458 L 613 462 L 617 464 L 619 469 L 622 470 L 625 475 Q 624 477 627 476 L 634 486 Q 633 488 636 487 Q 635 490 638 492 Q 637 494 640 493 L 642 497 Q 641 500 644 499 L 648 508 L 659 524 L 660 528 L 666 536 L 666 539 L 672 547 L 673 551 Q 672 553 675 552 L 678 561 L 689 581 L 689 584 L 701 606 L 701 609 L 707 619 L 707 623 L 713 633 L 713 636 L 719 647 L 719 650 L 725 660 L 725 663 L 734 676 L 739 679 L 742 677 L 741 660 L 737 651 L 736 645 L 731 636 L 731 633 L 725 623 L 725 619 L 719 609 L 718 604 Q 713 598 711 589 L 688 543 L 685 540 L 678 525 L 659 495 Q 660 492 657 493 L 651 484 Q 652 481 650 482 L 642 472 Q 643 469 640 470 L 632 460 Q 633 457 630 458 L 613 437 L 610 434 Q 606 433 607 429 L 601 425 Q 602 422 600 423 L 596 419 L 580 403 L 577 399 L 567 391 Q 564 392 565 390 L 546 377 L 532 373 Z M 690 376 L 690 380 L 695 386 L 698 387 L 701 392 Q 700 394 703 393 L 711 404 Q 710 406 713 405 L 714 409 L 718 411 L 719 415 L 731 430 L 731 432 L 735 436 L 744 451 Q 743 453 746 452 L 752 463 Q 751 465 754 464 L 754 468 L 766 485 L 766 487 L 777 504 L 779 510 L 782 513 L 794 537 L 799 551 L 801 553 L 801 557 L 807 567 L 807 570 L 813 578 L 813 580 L 823 588 L 833 588 L 842 582 Q 846 583 848 581 L 864 582 L 872 586 L 873 589 L 872 599 L 865 609 L 862 611 L 860 614 L 842 628 Q 835 629 833 633 Q 830 632 831 635 L 828 635 L 819 641 L 806 647 L 803 647 L 794 652 L 787 653 L 772 659 L 767 659 L 757 664 Q 752 666 752 672 L 755 674 L 760 675 L 771 674 L 779 670 L 783 670 L 798 664 L 804 663 L 831 651 L 842 644 Q 844 645 843 642 L 848 641 L 859 633 L 860 630 L 866 627 Q 865 624 868 625 L 878 614 L 883 604 L 885 594 L 883 581 L 872 571 L 860 568 L 845 568 L 833 572 Q 830 571 831 574 L 828 575 L 819 564 L 801 521 L 781 484 Q 782 481 779 482 L 778 478 L 763 454 Q 764 451 761 452 L 760 448 L 751 436 Q 752 433 749 434 L 748 432 Q 749 428 746 429 L 739 419 Q 740 416 737 417 L 736 414 L 730 407 Q 731 404 729 405 L 719 395 Q 720 392 718 393 L 713 387 L 709 384 Q 706 385 707 383 L 698 376 L 690 376 Z M 180 436 L 166 439 L 155 446 Q 156 448 154 447 L 149 456 Q 150 462 147 465 L 147 472 L 144 481 L 145 485 L 145 487 Q 143 488 144 493 L 144 495 L 143 498 L 144 500 L 143 502 L 144 504 L 144 523 L 145 524 L 144 526 L 145 529 L 144 532 Q 147 535 145 543 L 146 544 L 146 564 L 146 566 L 147 569 L 146 573 L 146 575 L 147 578 Q 149 584 146 586 L 147 588 L 146 590 L 146 605 L 150 625 Q 154 628 154 636 L 157 640 L 158 647 L 162 653 L 167 669 L 170 673 Q 170 679 173 682 L 173 688 L 180 699 Q 179 701 182 700 L 182 702 L 190 706 L 203 705 L 218 698 L 224 697 L 230 693 L 248 687 L 255 683 L 259 683 Q 262 679 270 679 L 272 677 L 292 672 L 302 690 L 306 700 L 311 707 L 312 713 L 316 719 L 318 727 Q 324 732 325 742 L 337 760 L 346 767 L 350 768 L 362 767 L 365 765 L 370 765 L 372 763 L 386 760 L 402 753 L 409 748 L 414 738 L 414 735 L 416 731 L 415 713 Q 412 711 413 705 L 411 703 L 411 698 L 409 695 L 407 683 L 405 680 L 403 667 L 391 639 L 391 634 Q 394 635 393 633 L 405 622 Q 407 623 406 620 L 408 620 L 408 618 L 411 618 L 419 612 L 432 606 Q 439 600 439 588 L 439 586 L 440 583 L 439 582 L 438 570 L 436 568 L 433 554 L 424 541 L 422 538 L 420 535 L 412 532 L 410 532 L 403 530 L 401 530 L 392 531 L 390 533 Q 381 534 377 538 L 373 538 L 364 543 L 362 540 Q 359 541 360 539 L 356 536 Q 351 529 348 519 L 345 497 L 343 493 L 342 485 L 338 480 L 336 477 L 326 470 L 311 470 Q 309 472 305 471 L 302 473 L 293 474 L 287 477 L 282 477 L 271 481 L 262 488 Q 263 491 260 490 L 256 504 L 256 516 L 255 517 L 257 524 L 257 529 L 263 546 L 268 554 L 269 561 L 262 562 L 260 564 Q 252 564 249 568 L 245 568 Q 239 572 232 572 L 233 568 L 233 530 L 233 528 L 231 518 L 232 514 L 232 512 L 231 509 L 232 507 L 231 504 L 232 502 L 231 499 L 232 497 L 231 495 L 232 492 L 230 484 L 231 482 L 228 458 L 223 449 L 220 445 L 207 440 L 202 437 L 201 438 L 195 436 L 193 437 L 192 436 L 180 436 Z M 1315 505 L 1299 514 Q 1296 513 1297 516 L 1295 517 L 1288 525 L 1287 530 L 1307 532 L 1311 534 L 1321 535 L 1332 539 L 1337 538 L 1338 535 L 1338 531 L 1336 526 L 1326 509 L 1320 505 L 1315 505 Z M 1198 508 L 1191 511 Q 1192 514 1189 516 Q 1190 518 1187 517 L 1179 542 L 1179 556 L 1181 556 L 1185 548 L 1186 542 L 1197 520 L 1202 518 Q 1209 518 1212 523 L 1222 543 L 1226 545 L 1227 543 L 1226 527 L 1220 517 Q 1215 511 1208 508 L 1198 508 Z M 1230 536 Q 1229 541 1232 544 L 1240 548 L 1251 550 L 1280 551 L 1281 552 L 1303 552 L 1326 556 L 1330 558 L 1336 558 L 1351 564 L 1355 564 L 1360 566 L 1379 576 L 1391 590 L 1391 597 L 1386 595 L 1370 596 L 1356 600 L 1351 600 L 1335 608 L 1326 618 Q 1327 623 1324 626 L 1326 637 Q 1330 643 1340 645 L 1344 645 L 1349 643 L 1363 635 L 1367 635 L 1388 629 L 1391 626 Q 1390 622 1393 623 L 1397 615 L 1401 600 L 1401 589 L 1397 579 L 1394 576 L 1391 573 Q 1391 570 1387 570 L 1385 567 L 1370 559 L 1332 547 L 1326 547 L 1316 544 L 1298 542 L 1297 541 L 1272 541 L 1271 540 L 1261 540 L 1260 539 L 1230 536 Z M 1033 541 L 1016 548 Q 1013 547 1014 550 L 1002 558 L 1002 561 L 996 571 L 996 589 L 1002 601 L 1026 622 Q 1025 624 1028 623 L 1036 632 L 1038 631 L 1037 621 L 1031 613 L 1029 611 L 1026 608 L 1016 600 L 1009 593 L 1005 583 L 1005 574 L 1008 566 L 1011 564 L 1014 559 L 1019 558 L 1028 552 L 1033 552 L 1043 549 L 1058 550 L 1052 553 L 1049 557 L 1047 558 L 1037 572 Q 1038 578 1035 581 L 1035 592 Q 1038 593 1037 599 L 1046 605 L 1058 605 L 1062 603 L 1077 603 L 1078 602 L 1139 602 L 1140 603 Q 1145 605 1147 602 Q 1151 603 1150 601 L 1147 597 L 1142 595 L 1120 591 L 1112 591 L 1111 590 L 1080 590 L 1069 593 L 1051 594 Q 1046 591 1045 586 L 1046 577 L 1052 567 L 1066 555 Q 1068 556 1067 553 L 1070 552 L 1072 553 Q 1074 552 1073 548 Q 1068 543 1061 541 L 1033 541 Z M 1182 558 L 1176 562 L 1164 577 L 1161 584 L 1159 595 Q 1158 601 1162 603 Q 1161 605 1164 604 L 1173 588 L 1173 584 L 1179 575 L 1183 562 L 1183 560 Q 1184 557 1182 558 Z M 1313 574 L 1310 575 L 1307 580 Q 1306 588 1309 592 L 1313 594 L 1319 592 L 1321 588 Q 1323 580 1320 577 Q 1318 573 1313 574 Z M 1260 575 L 1256 576 L 1254 583 L 1254 589 L 1256 594 L 1262 596 L 1266 595 Q 1270 592 1271 586 L 1269 576 Q 1266 574 1260 575 Z M 1026 626 L 1018 629 L 1014 629 L 1002 635 L 999 635 L 989 641 L 986 641 L 974 649 Q 971 648 972 651 Q 971 654 967 653 L 963 659 Q 960 658 961 661 L 955 665 L 954 669 L 952 670 Q 948 670 949 675 L 946 676 L 935 693 Q 936 695 933 694 Q 931 702 925 708 L 925 711 L 919 722 Q 918 729 920 733 L 928 737 L 943 735 L 951 729 L 954 729 L 971 718 L 1002 706 L 1004 703 L 1002 700 Q 997 701 996 699 L 983 700 L 963 710 Q 960 709 961 712 L 958 712 L 945 721 Q 942 720 943 723 L 931 726 L 931 721 L 937 712 L 938 708 L 955 686 L 955 684 L 958 682 L 966 671 Q 972 661 983 656 L 984 653 L 988 653 L 991 650 L 1013 639 L 1029 628 Q 1030 625 1026 626 Z M 1393 633 L 1385 635 L 1379 635 L 1363 641 L 1358 641 L 1347 647 L 1340 653 L 1332 662 Q 1333 665 1330 664 L 1316 682 L 1314 679 L 1311 676 L 1309 674 Q 1308 669 1302 670 L 1301 675 L 1303 681 L 1308 683 Q 1310 682 1309 685 L 1314 686 L 1312 694 Q 1311 699 1313 701 L 1311 707 L 1311 723 L 1310 724 L 1310 736 L 1309 737 Q 1307 746 1311 751 Q 1310 754 1313 753 L 1315 759 L 1321 764 Q 1320 766 1323 765 L 1334 781 L 1337 782 L 1338 786 L 1348 794 Q 1354 795 1358 800 L 1371 806 L 1379 806 L 1380 807 L 1397 806 L 1409 802 L 1411 800 L 1415 800 L 1423 794 L 1426 794 L 1448 782 L 1455 773 L 1459 765 L 1462 756 L 1462 750 L 1468 731 L 1468 715 L 1461 691 L 1440 655 Q 1441 652 1438 653 L 1435 647 Q 1432 648 1433 646 L 1421 637 L 1415 635 L 1393 633 Z M 950 667 L 936 676 L 934 676 L 928 682 Q 924 681 925 684 L 920 687 L 911 696 Q 908 699 909 706 L 917 708 L 917 702 L 924 694 Q 926 695 925 693 L 946 675 L 950 670 L 950 667 Z M 1267 704 L 1265 705 L 1261 710 L 1263 720 L 1268 728 Q 1267 730 1270 729 L 1280 744 L 1285 747 L 1291 756 L 1296 759 L 1297 763 L 1301 765 L 1309 778 L 1310 783 L 1309 792 L 1307 794 L 1295 794 L 1281 785 Q 1278 786 1279 784 L 1276 782 L 1273 779 L 1271 777 L 1267 773 L 1265 771 L 1261 767 L 1259 765 L 1256 762 L 1253 759 L 1244 749 L 1238 744 L 1235 744 L 1238 753 L 1245 763 L 1249 765 Q 1250 771 1256 775 Q 1255 777 1258 776 L 1259 779 L 1270 788 L 1273 793 L 1278 795 Q 1280 794 1279 797 L 1295 804 Q 1308 806 1314 800 L 1318 792 L 1317 778 L 1308 761 Q 1309 758 1307 759 L 1295 744 L 1291 741 L 1291 739 L 1285 733 L 1285 731 L 1282 729 L 1274 718 L 1270 706 L 1267 704 Z M 1022 706 L 1020 708 L 1021 713 L 1033 721 L 1040 723 L 1050 729 L 1054 729 L 1066 735 L 1070 735 L 1085 741 L 1090 741 L 1109 747 L 1115 747 L 1143 753 L 1155 753 L 1166 755 L 1179 755 L 1180 756 L 1196 756 L 1208 753 L 1213 753 L 1224 747 L 1225 743 L 1223 742 L 1214 742 L 1199 745 L 1190 745 L 1189 746 L 1162 745 L 1139 741 L 1130 741 L 1108 735 L 1102 735 L 1085 729 L 1080 729 L 1072 725 L 1062 723 L 1052 718 L 1048 718 L 1022 706 Z M 1288 716 L 1285 717 Q 1281 718 1282 723 L 1289 726 L 1299 725 L 1302 723 L 1303 723 L 1303 719 L 1293 716 L 1288 716 Z " /><path fill="rgb(0,0,0)" stroke="rgb(0,0,0)" stroke-width="1" opacity="0" d="M 814 151 L 821.5 151 L 822 152.5 L 823 154.5 L 820.5 158 L 815.5 160 L 813 159 L 814 151 Z " /><path fill="rgb(0,0,0)" stroke="rgb(0,0,0)" stroke-width="1" opacity="0" d="M 1760 379 L 1763 380.5 L 1779 408.5 L 1772.5 416 L 1765 419 Q 1766.1 421.7 1763.5 421 L 1743.5 432 L 1740.5 435 L 1734.5 437 L 1728.5 442 L 1726.5 442 L 1719.5 447 L 1716.5 447 L 1712 450 Q 1713.1 452.7 1710.5 452 L 1704 457.5 L 1702 460.5 L 1701 470.5 L 1701 472.5 L 1701 478.5 L 1707.5 488 Q 1710.5 487.2 1709 491 L 1711.5 491 L 1713 494 L 1717 494 L 1717 495.5 L 1721 498.5 Q 1720.3 500.8 1722.5 500 L 1724 503 L 1728 503 L 1728 504.5 L 1731 509 L 1739.5 515 L 1743.5 515 Q 1745 511.5 1746.5 514 L 1750 510.5 Q 1749.3 508.3 1751.5 509 L 1754 508 L 1754 506 Q 1756.7 507.1 1756 504.5 L 1767 488.5 L 1767 486 Q 1769.7 487.1 1769 484.5 L 1770 482 L 1777.5 479 L 1788 481 L 1788 483.5 L 1792.5 488 L 1795 489.5 Q 1794.3 491.8 1796.5 491 Q 1799 492 1798 496.5 Q 1795.3 497.6 1796 501 Q 1793 499.8 1794 503.5 Q 1790.4 505.4 1791 510 Q 1787.7 508.7 1789 513.5 L 1780 529.5 L 1778 537.5 L 1778 545.5 Q 1780.5 547 1779 552.5 L 1781 556.5 L 1780 557.5 L 1783 560.5 L 1785 563.5 L 1790 567 Q 1788.9 569.7 1791.5 569 L 1793 572 L 1796 573.5 Q 1799.8 575.8 1799 582.5 Q 1796.3 583.6 1797 587 Q 1794 585.8 1795 589.5 Q 1792.2 591.5 1793 596 Q 1789.2 594.5 1790 597.5 L 1789 600 L 1783.5 602 L 1770 593 L 1770 591 L 1766 591 Q 1767.1 588.3 1764.5 589 L 1762 588 L 1762 586 L 1757.5 586 Q 1758.5 583 1753.5 584 L 1752.5 583 L 1742.5 583 L 1741 586 L 1739 586 L 1739 591 L 1737.5 591 L 1732 594 Q 1733.1 596.7 1730.5 596 L 1724 600 Q 1725.7 604.1 1721.5 603 L 1718.5 607 Q 1716.3 606.3 1717 608.5 L 1712.5 614 L 1710 615.5 L 1708 618.5 L 1707 621 Q 1704.3 619.9 1705 622.5 L 1704 625 L 1701 626.5 L 1696.5 633 Q 1694.3 632.3 1695 634.5 L 1692 636 L 1690.5 639 L 1682.5 644 L 1680.5 644 L 1677 644 Q 1678.1 641.3 1675.5 642 L 1664 635.5 Q 1664.8 633.3 1662.5 634 L 1660 633 L 1657 627.5 L 1659 623 Q 1662 624.3 1661 620.5 L 1665 617.5 L 1670 610.5 L 1670 607 Q 1673 608.3 1672 604.5 L 1678 592.5 L 1678 588 Q 1681.7 589.4 1680 583.5 L 1683 578.5 L 1685 563.5 Q 1688 562.3 1687 558 Q 1690.3 559.3 1689 554.5 L 1690 551.5 L 1680 534 L 1677 532.5 L 1677 530.5 L 1675 526 L 1672 524.5 L 1671 520 L 1667 517.5 L 1664.5 513 L 1662 511.5 Q 1662.8 509.3 1660.5 510 L 1659 507 L 1655 506 Q 1656.5 502.3 1653.5 503 L 1641.5 494 L 1639 494 L 1639 492 L 1635 492 Q 1636.3 489 1632.5 490 L 1629 488 L 1631.5 484 L 1633 484 Q 1631.5 480.3 1634.5 481 L 1640 476.5 L 1642.5 473 L 1645.5 471 L 1648.5 467 Q 1650.8 467.8 1650 465.5 L 1654 460 Q 1656.7 461.1 1656 458.5 L 1657 456 Q 1659.7 457.1 1659 454.5 L 1660 452 L 1666 447.5 L 1667.5 445 L 1671.5 442 L 1674 442 L 1674.5 439 L 1676.5 439 L 1682 435.5 L 1683.5 433 L 1694 425.5 Q 1693.3 423.3 1695.5 424 L 1698 423 Q 1696.5 419.3 1699.5 420 Q 1700.8 416.2 1705 417 L 1706.5 414 L 1714 409.5 Q 1713.3 407.3 1715.5 408 L 1722 404.5 Q 1721.3 402.3 1723.5 403 L 1735.5 397 L 1738.5 394 L 1742.5 393 L 1753.5 384 L 1760 381 L 1760 379 Z " /><path fill="rgb(0,0,0)" stroke="rgb(0,0,0)" stroke-width="1" opacity="0" d="M 168 457 L 173.5 458 L 189.5 458 L 195.5 460 L 197.5 460 L 202.5 460 L 212 464.5 L 214 473.5 L 213 476.5 L 214 479.5 L 213 481.5 L 214 482.5 L 214 501.5 L 215 502.5 L 214 503.5 L 214 524.5 L 214 526.5 Q 216.6 534.4 215 546.5 L 214 548.5 L 215 550.5 L 214 552.5 L 214 554.5 L 215 558.5 L 212 572.5 Q 214.3 586.2 223.5 593 L 230.5 596 L 231.5 595 L 242.5 594 L 244.5 592 L 258.5 589 L 269.5 583 L 281.5 580 L 289 574.5 L 292 561.5 Q 290.7 553.3 286 548.5 L 282 532.5 L 280 530.5 L 277 514.5 Q 279.5 513 278 507.5 L 282.5 502 L 304.5 493 L 319.5 491 L 323 493.5 L 325 498.5 L 325 504.5 L 332 527.5 L 344 546.5 L 350.5 553 L 354.5 556 Q 356 553.5 361.5 555 L 364.5 553 L 375.5 555 L 376.5 554 L 385.5 554 L 388.5 552 Q 393.3 553.3 394.5 551 L 401.5 551 L 404.5 552 Q 410.3 551.3 411 555.5 L 418 572.5 L 421 588.5 L 420 591 L 413.5 595 L 410.5 595 L 396 604 Q 397.1 606.7 394.5 606 L 390 609 Q 391.1 611.7 388.5 611 L 376 623.5 Q 371.8 629.3 373 640.5 L 378 652.5 L 379 659.5 L 381 661.5 L 386 675.5 L 388 689.5 L 394 708.5 L 394 713.5 L 396 716.5 L 397 724.5 L 395 729 L 388.5 733 L 384.5 733 L 381.5 735 L 374.5 736 L 372.5 738 L 365.5 739 L 363.5 741 Q 357.4 740.4 354.5 743 L 346 729.5 L 346 726.5 L 341 717.5 L 336 701.5 L 331 694.5 L 330 689.5 L 318 669.5 L 306.5 655 L 295.5 649 L 273.5 654 L 271.5 656 L 262.5 658 L 260.5 660 L 255.5 660 L 244.5 664 L 240.5 667 L 234.5 668 L 222.5 673 L 218.5 676 L 214.5 676 L 201.5 683 L 197.5 683 Q 196.8 685.8 192.5 685 L 189 678.5 L 189 673.5 L 181 652.5 L 181 647.5 L 173 631.5 L 173 626.5 L 170 622.5 L 169 615.5 L 167 613.5 L 164 593.5 L 165 590.5 L 164 587.5 L 164 585.5 Q 165.7 577.3 163 573.5 L 164 570.5 L 158 538.5 L 159 535.5 L 158 531.5 L 158 529.5 L 159 526.5 L 158 523.5 L 159 521.5 L 159 519.5 L 159 511.5 L 162 502.5 L 162 500.5 L 164 496.5 L 164 494.5 L 169 473.5 L 169 461.5 L 168 457 Z " /><path fill="rgb(0,0,0)" stroke="rgb(0,0,0)" stroke-width="1" opacity="0" d="M 1317.5 513 L 1321 515.5 L 1326 523.5 L 1327 529 L 1320.5 529 L 1315.5 527 L 1299 524.5 L 1317.5 513 Z " /><path fill="rgb(0,0,0)" stroke="rgb(0,0,0)" stroke-width="1" opacity="0" d="M 1393.5 647 L 1404.5 648 L 1415.5 651 Q 1422.9 653.1 1427 658.5 L 1430 664 Q 1432.7 662.9 1432 665.5 L 1433 669.5 L 1448 694.5 L 1453 708.5 L 1456 724.5 L 1450 750.5 L 1450 758.5 L 1444 768.5 L 1444 771 L 1435.5 777 L 1418.5 783 L 1400.5 792 L 1391.5 794 L 1378.5 794 L 1366.5 788 L 1363.5 788 L 1350 778.5 Q 1350.8 776.3 1348.5 777 L 1344 772.5 L 1338 761.5 L 1338 759 L 1332 754.5 Q 1332.8 752.3 1330.5 753 L 1323 744.5 L 1322 709.5 Q 1326 703.5 1326 693.5 L 1330.5 688 Q 1332.8 688.8 1332 686.5 L 1335.5 682 L 1338 680.5 L 1340.5 676 L 1343 674.5 L 1344 670 L 1348 667.5 L 1350.5 664 L 1362.5 656 L 1393.5 647 Z M 1381 681 L 1370 684 L 1359 693 Q 1360 695 1357 694 L 1354 703 L 1356 726 L 1358 734 L 1362 744 L 1368 751 L 1372 753 L 1374 757 L 1382 761 L 1397 759 L 1411 752 Q 1419 746 1421 735 Q 1423 722 1420 715 L 1414 696 L 1409 688 L 1399 682 L 1381 681 Z " /><path fill="rgb(0,0,0)" stroke="rgb(0,0,0)" stroke-width="1" opacity="0" d="M 1394.5 693 L 1403 694 L 1409 705.5 L 1409 710.5 L 1412 718.5 L 1412 732.5 L 1409 741 L 1407 741 Q 1408.1 743.7 1405.5 743 Q 1399.5 751 1384.5 750 L 1379 745.5 Q 1379.8 743.3 1377.5 744 Q 1363.7 735.3 1362 714.5 Q 1365.3 705.8 1371.5 700 L 1382.5 694 L 1393.5 694 L 1394.5 693 Z " /></svg>